<?xml version="1.0" standalone="no"?>
<!DOCTYPE svg PUBLIC "-//W3C//DTD SVG 20010904//EN"
 "http://www.w3.org/TR/2001/REC-SVG-20010904/DTD/svg10.dtd">
<svg version="1.0" xmlns="http://www.w3.org/2000/svg"
 width="503.000000pt" height="503.000000pt" viewBox="0 0 503.000000 503.000000"
 preserveAspectRatio="xMidYMid meet">

<g transform="translate(0.000000,503.000000) scale(0.100000,-0.100000)"
fill="#000000" stroke="none">
<path d="M2226 1951 c-14 -16 -15 -23 -6 -41 10 -18 19 -21 72 -18 68 3 93 22
72 56 -17 27 -114 29 -138 3z"/>
<path d="M2662 1958 c-16 -16 -15 -43 2 -57 22 -18 126 -10 140 11 19 30 -18
58 -79 58 -28 0 -56 -5 -63 -12z"/>
<path d="M2044 1842 c-17 -11 -22 -35 -13 -59 12 -33 65 -32 80 1 21 44 -27
86 -67 58z"/>
<path d="M2440 1839 c-41 -17 -70 -50 -70 -81 0 -34 36 -74 75 -84 26 -6 27
-9 22 -52 -5 -49 -19 -64 -57 -60 -18 2 -30 14 -44 41 -15 32 -23 38 -45 35
-22 -3 -26 -8 -29 -41 -3 -33 2 -43 36 -78 34 -33 46 -39 81 -39 23 0 55 7 71
15 27 14 33 14 60 0 16 -8 48 -15 71 -15 35 0 47 6 81 39 34 35 39 45 36 78
-3 33 -7 38 -29 41 -22 3 -30 -3 -45 -35 -34 -70 -104 -47 -104 33 0 26 5 33
26 38 38 10 74 50 74 84 0 29 -25 59 -67 81 -26 13 -109 13 -143 0z"/>
</g>
</svg>
